<svg xmlns="http://www.w3.org/2000/svg" viewBox="0 0 226.7 225.7"><defs><style>.a{fill:#441212;}</style></defs><path class="a" d="M144,218.8C80.2,231.1,7.2,187.7,5.4,119.1,3.6,54.1,50.3,5.6,114.8,3.3c1.5,0,1.7-2.2.2-2.3C49.9-.2-.9,54.6,0,119.3c1,71.5,78.8,117.3,144.4,101.6A1.1,1.1,0,1,0,144,218.8Z"/><path class="a" d="M163.3,211.8C271.8,158.5,231.7,2.7,113.4.2a.9.9,0,0,0-.1,1.8c114.6,9.7,151,150.4,49.1,208A1,1,0,0,0,163.3,211.8Z"/><path class="a" d="M204.9,59.2c4.4,7-4.3,10.9-11,11.8-2.2.3-.3-.4-3.5.3-.8.2-1,1.6-1.7,1.8l-9.3.2-2.3-1.2c-2.7-.4-3.5-1.1-6.2.3s-.8,2.8-4.9,1.6c-.6-.2-.9.7-.3,1l3.9,1.5a.6.6,0,0,0,.9-.6c.7-4.6,12.5.6,15.5.6a7.4,7.4,0,0,0,2.2-1c2.1-2.3,5-3.2,8.9-2.5,1.3-.2,2.1.2,3.3,0,7.1-1.2,9.1-8.7,5.5-14.3C205.5,58.1,204.5,58.6,204.9,59.2Z"/><path class="a" d="M133.6,4.9c-5.2,4.1-13.9,10.5-13,18.2s8.8,8.5,14.5,8.3a.6.6,0,0,0,.1-1.2,38.5,38.5,0,0,1-6.7-.9c-4.6-1.3-7.8-5.3-5.8-10.3s7.6-9.2,11.7-13.2C134.9,5.3,134.2,4.4,133.6,4.9Z"/><path class="a" d="M131.9,32c4.4,2.8,7.3,4.2,5.2,10.9-.3.9-1.3,2-1.6,2.9a10.5,10.5,0,0,0,.6,7.2c2.7,6.2,9.5,8.6,15.8,8.9a.7.7,0,0,0,.3-1.3c-4.9-1.5-10.5-2.6-13.3-7.3s.4-7.6,1.4-12.2-4-8.3-7.9-10C131.8,30.8,131.4,31.7,131.9,32Z"/><path class="a" d="M150.1,60.5c2.5,5.3,4.7,13.4,10.4,16.2,3.6,1.7,9.3.7,9.8-3.9a.8.8,0,0,0-1.4-.5c-6.7,10.2-15-7.6-17.6-12.3C150.9,59.2,149.7,59.8,150.1,60.5Z"/><path class="a" d="M59.2,19.8c6.6-.7,12.9-2.4,19.4-3.4s9.3-1.7,13.8,2.8c2.4,2.4,3.7,5.9,5.1,8.9a.6.6,0,0,0,1.1-.5c-2.1-6.2-5.5-12.7-12.5-13.8S66.7,16.3,59,18.4C58.1,18.7,58.3,20,59.2,19.8Z"/><path class="a" d="M100,31.2c3.6,5.6,9.4,15.5,2,20.9-4.5,3.3-9.6-1.8-14.1,1.3-.5.4.1,1.2.7,1,4-1.6,8.1,1.9,12.2.5a9.2,9.2,0,0,0,5-4.5c4-6.9-.6-14.3-4.6-20C100.7,29.7,99.5,30.5,100,31.2Z"/><path class="a" d="M85.7,56.6c-1.1,3.1-2.4,6.1-3.4,9.2a.5.5,0,0,0,1,.4c1.4-3,2.4-6.1,3.6-9.2C87.2,56.3,86,55.9,85.7,56.6Z"/><path class="a" d="M81.2,67.7c-1.5.9-3.1,2.5-5.1,2.1s-3.4-2.5-4.7-3.3a.5.5,0,1,0-.6.9c1.8,1.6,3.8,2.9,5.7,4.3a.6.6,0,0,0,.7.1l4.7-3.1C82.5,68.3,81.8,67.3,81.2,67.7Z"/><path class="a" d="M71.5,69.3c-3.1-1.9-6-2.9-9.6-2.5-6.2.7-8.7,5.5-16.1,2.5s-13.2-6.7-19.1-.6c-.4.4,0,1.2.5.9,5.3-3.2,11.3-2,16.4.8,2,1.1,4.1,3.1,6.4,3.4s2.3-.1,3.7-.6c6.7-2.2,7.8-7.8,17.1-2.8C71.5,70.8,72.3,69.7,71.5,69.3Z"/><path class="a" d="M28.3,68.1C23.9,64.7,14,67,15.1,73.8a.9.9,0,0,0,1.6.2c1.9-4.1,6.1-8,10.9-4.8C28.3,69.6,28.9,68.6,28.3,68.1Z"/><path class="a" d="M9.1,78.9c.1,3.2,2.8,4.4,5.8,3.9,5.5-.8,5.4-5.5,12.3-.2,1.6,1.3,2,2.7,4.2,3s6.1-2,9.6-.3,3.2,5.5-.3,8.3c-.6,4.1-2.2,5.3-4.8,3.7-.6.2-1.4-.1-2.1,0-4.5,1-5.9,6.7-6.6,10.5-.1.7,1,.9,1.2.2s1.1-5,2.5-6.5c8.3-9,4.1,0,8.8-1.3,1.9-.5,2.4-.1,3.9-1.6,4.3-3.9,1.4-11.2-2.1-14.7-1.3-1.2-1.8-1.8-3.7-1.8s-1.4.7-2.5.9c-3.9.9-5.6-.3-8.1-2.4s-2.1-2.4-4.2-2.7-11.7,6.2-12.6.9A.7.7,0,0,0,9.1,78.9Z"/><path class="a" d="M25.4,108.7l-3-2.2a.7.7,0,0,0-.6-.1,6,6,0,0,0-2.9,4.2c-.7,3.2.6,12.1-5.2,11-.6-.1-.8.8-.2.9,2.4.8,4.2-.8,5.3-3a13,13,0,0,0,1-5.2,13.2,13.2,0,0,1,.4-3.4c1-3.2,2.5-2.8,4.6-1.3C25.4,110,25.9,109.1,25.4,108.7Z"/><path class="a" d="M11.2,126.3c.1,6.2-3.1,10.7-5.4,16.2-.3.7.7,1.2,1.3.8,5.1-4,5.6-11.1,5.2-17.1C12.3,125.6,11.2,125.7,11.2,126.3Z"/><path class="a" d="M221.2,118.8c-2.2,3.1-5.3,6.2-9.7,6-1.5-.1-3.5-1.6-5.3-1.7a13.2,13.2,0,0,0-8.8,2.5c-2.6,1.8-3.1,4.1-4.7,6.5-4.1,6.5-10.9,4.3-18.2,4.5-.6,0-.7,1,0,1,4,.3,13,2.4,16.6.6s3-7.2,6.7-10.3c9.1-7.8,20.3,7.2,24.2-8.7C222.1,118.7,221.5,118.3,221.2,118.8Z"/><path class="a" d="M173.7,137.3c-4.8-4.2-6-12.2-9-17.6-8.9-15.6-3.6-5-5-11.9-.3-1.7,0-3-.6-4.6a11.4,11.4,0,0,0-2.5-3.9,12.9,12.9,0,0,0-11.3-3.7c-7.4,1.2-11.8,14.8-19.7,12.6-.8-.2-1.2,1-.4,1.2,3.8,1.1,6.7.1,9.6-2.7s4.5-7.3,8-8.9,8.6-.7,11.2,1.4c4.1,3.2,3.8,7.8,4.2,12.4s3.7,8.2,5.9,13.1c2.8,6.6,3,9.4,9,13.5C173.7,138.6,174.2,137.8,173.7,137.3Z"/><path class="a" d="M124.2,108.9l-6.7,4.6a.8.8,0,0,0-.1.8c3.1,7.3,5.2,12.7,6.7,20.6.7,3.8,3.8,7,4.4,10.2,1,4.9-6.2,8.3-4.1,14.4,1.1,3.3,2.2,2.4,4.6,4.5s7,7.1,10.7,10.1,7.6,3.5,10.8-.3c.6-.7-.6-1.5-1.2-.8-2.6,3-32.5-13.1-16.6-25.8a.8.8,0,0,0-.1-1.2c-5.6-3.8-5.5-13.3-8.1-19.4s-6.7-11.6.5-16.7C125.6,109.4,124.8,108.5,124.2,108.9Z"/><path class="a" d="M149.5,176.5c3.1-2.4,7.3-3.1,10.3,0,.8.9.9,2.4,1.8,3.4a4.2,4.2,0,0,0,2.7,1.8c3.1.6,4.4-2.3,6.6-3.6l1-.9c1.9-2,3-.1,3.3,5.8-.3,1.8-2.3,3.5-3.3,5s-2.7,3.4-2.3,5.3,8.4,3.8,8.1,5.3a1,1,0,0,0,.6.8,7.8,7.8,0,0,0,5.6.3.7.7,0,0,0-.2-1.3c-6.3.7-2.5-1.7-5.7-3.2l-3.6-.6c-4.6-3.7,0-6.5,1.4-9.1s3.7-10.2-1.1-11.2c-1.6-.3-2.8.8-3.9,1.7s-2.8,3.5-4.3,3.8c-4.1.8-4.3-2.6-5.7-4.7-3.5-5.4-8.1-3.4-12.4.1C147.5,175.9,148.6,177.2,149.5,176.5Z"/><path class="a" d="M155.1,195a16.3,16.3,0,0,0-8.5-12.1c-6.2-3.4-21.8,1.2-22.3-8.6a.6.6,0,1,0-1.1-.1c-.4,4.5,2.9,7.2,7.1,8.2s8.4-.3,12.6.9c6,1.6,9.3,6.2,10.8,12A.7.7,0,0,0,155.1,195Z"/><path class="a" d="M122.4,176.1c-.8-11.6-16.9-15.6-22.3-4.7-.3.6.7,1.1,1.1.5,6.2-8.1,18.4-6.2,20.2,4.4A.5.5,0,1,0,122.4,176.1Z"/><path class="a" d="M98.2,172.2l-8.4,4.6c-1.9,1-4.6,2-6.1,3.8-2.8,3.7,3.6,6.9,1.6,9.5a.6.6,0,0,0,.8.9c2.3-1,1.3-3,.6-4.9s-2.1-4.2.6-6l3.9-2.1c2.6-1.4,5.2-2.8,7.7-4.3C99.8,173.2,99.1,171.7,98.2,172.2Z"/><path class="a" d="M85.1,189.4,82,192a13.1,13.1,0,0,1-2.8-.9,21.8,21.8,0,0,0-2.3-.9,6.1,6.1,0,0,0-3.3-.3,3.3,3.3,0,0,0-3.1,3.1c-.1.5.8.9,1.1.4,2.5-4.8,8.3,1.1,12-.1,2-.6,3.2-2.1,2.8-4.2S85,188.6,85.1,189.4Z"/><path class="a" d="M68.3,193.8c-.6,1.7-4.5,1.1-5.8,2.4a4,4,0,0,0-1.1,2,7.4,7.4,0,0,0,0,2.1c-.1.9,1,6-2.2,4-.6-.3-1.1.4-.8,1,1.8,2.5,4.6-.3,4.9-2.5s-.3-2.3-.1-3.5c.4-2.9,2-2.3,4-2.8s2.1-.8,2.4-2.2S68.6,193,68.3,193.8Z"/><path class="a" d="M152.9,194.4c.9,8.8-6.8,13.6-14.8,11.6-.6-.2-1.1.7-.5,1,8.9,4.9,18.5-3.5,16.7-12.9C154.2,193.2,152.8,193.4,152.9,194.4Z"/><path class="a" d="M130.1,209.3,126,215a7.7,7.7,0,0,1-7.4-.5,36,36,0,0,1-3.7-2.2,23.1,23.1,0,0,0-6-3.2c-3.1-1-5.9-.9-8.4,1.4-.4.4.1,1.2.6.8,8.3-4.9,14,6.1,22.1,5.7,4.4-.2,7.2-3.6,8.1-7.6C131.4,208.7,130.3,208.6,130.1,209.3Z"/><path class="a" d="M96,212c-5.3,4.1-10.2,4.2-16.6,3.2a.6.6,0,0,0-.4,1.1c5.7,3.1,13.4,1,17.8-3.4C97.3,212.4,96.6,211.5,96,212Z"/><path class="a" d="M138.5,206.9a22.3,22.3,0,0,0-9.5,5,.6.6,0,0,0,.7,1,72.8,72.8,0,0,1,9.2-4.8C139.5,207.9,139.2,206.7,138.5,206.9Z"/><path class="a" d="M79,68.9a214.7,214.7,0,0,1,26,23.5c.4.4,1-.2.7-.6A150.4,150.4,0,0,0,79.6,68.1C79.1,67.7,78.5,68.5,79,68.9Z"/><path class="a" d="M82.5,65c9.3,7.7,17.9,16.1,26.4,24.7.5.4,1.1-.2.7-.6A216.1,216.1,0,0,0,83,64.2C82.5,63.8,82,64.6,82.5,65Z"/><path class="a" d="M84.9,61.9c17.4,13.1,32.2,27.9,46.3,44.4a.5.5,0,1,0,.7-.6c-12.7-17.2-29-32.4-46.5-44.7C84.9,60.6,84.3,61.5,84.9,61.9Z"/><path class="a" d="M88.3,59.8C105.9,73,121.6,88,136.4,104.2c.5.5,1.3-.2.8-.7A291.9,291.9,0,0,0,88.9,58.9C88.4,58.5,87.8,59.4,88.3,59.8Z"/><path class="a" d="M90.5,57a123.1,123.1,0,0,1,12,9.6c.4.4,1.1-.2.7-.7a60.4,60.4,0,0,0-12.1-9.8A.5.5,0,0,0,90.5,57Z"/><path class="a" d="M105.7,68.4c11.2,10.2,21.3,21.3,31.6,32.4a.5.5,0,1,0,.7-.6c-9.2-12-20.4-22.6-31.7-32.5C105.9,67.3,105.2,68,105.7,68.4Z"/><path class="a" d="M95.4,53.4c17,13.9,31.4,29.6,45,46.7.4.5,1.2-.1.8-.7C128.7,81.7,112.9,66.1,96,52.6,95.5,52.1,94.9,53,95.4,53.4Z"/><path class="a" d="M99.5,50.8a460.5,460.5,0,0,1,47.4,50.4c.5.6,1.2-.1.8-.7a298.4,298.4,0,0,0-47.5-50.4C99.8,49.7,99.1,50.4,99.5,50.8Z"/><path class="a" d="M104.6,51.6c9.8,7.8,19.1,16.1,28.3,24.6.4.4,1.1-.1.7-.6a223.9,223.9,0,0,0-28.2-25.1C104.7,50,104,51.1,104.6,51.6Z"/><path class="a" d="M108.5,95.5a28.3,28.3,0,0,0,2,2.8c.3.5,1.1,0,.8-.5a22,22,0,0,0-1.9-3C109,94.1,108.1,94.9,108.5,95.5Z"/><path class="a" d="M113.6,100.3c2.6,2.8,5.2,5.7,8,8.4a.5.5,0,1,0,.8-.7c-2.6-2.9-5.4-5.6-8.1-8.3C113.9,99.3,113.2,99.8,113.6,100.3Z"/><path class="a" d="M111.9,91.8c5,5.4,9.8,10.9,15,16.1a.6.6,0,0,0,.8-.8c-4.8-5.5-10-10.7-15-16C112.2,90.6,111.4,91.3,111.9,91.8Z"/><path class="a" d="M64.3,13.9l4.5,2.4c.6.3,1.2-.4.6-.8L65,12.9C64.3,12.6,63.7,13.5,64.3,13.9Z"/><path class="a" d="M68.9,12.1,74,15.5c.5.4,1-.4.5-.8l-5-3.5C68.9,10.9,68.3,11.7,68.9,12.1Z"/><path class="a" d="M73.8,11.4a14.3,14.3,0,0,0,6.8,4c.6.1,1-.7.4-.9a14.4,14.4,0,0,1-6.4-3.8C74.1,10.3,73.3,10.9,73.8,11.4Z"/><path class="a" d="M77.3,10.6a13.8,13.8,0,0,0,7.9,3.2c.6.1.7-.9.1-1a16.7,16.7,0,0,1-7.4-3.1C77.4,9.2,76.8,10.1,77.3,10.6Z"/><path class="a" d="M82.4,9.9c2.9,1.7,5.9,3.5,8.9,5a.5.5,0,1,0,.5-.8C89,12.3,86,10.6,83.1,8.9,82.4,8.6,81.8,9.5,82.4,9.9Z"/><path class="a" d="M86.7,8.4c11.4,7.4,21.5,16.1,31.3,25.5.5.4,1.2-.2.8-.7-9-10.1-20-18.6-31.3-25.8C86.8,6.9,86,8,86.7,8.4Z"/><path class="a" d="M90.3,6.2A257.3,257.3,0,0,1,125,34.8c.4.4,1.1-.2.7-.7A160.3,160.3,0,0,0,90.9,5.3.5.5,0,0,0,90.3,6.2Z"/><path class="a" d="M95.4,6.5a218.1,218.1,0,0,1,28.4,22.1c.5.4,1.2-.1.8-.6A104.4,104.4,0,0,0,96,5.8C95.5,5.5,95,6.2,95.4,6.5Z"/><path class="a" d="M98.2,4.7a202.4,202.4,0,0,1,22.3,16.7c.4.3,1-.4.6-.8-6.5-6.5-14.4-12-22.3-16.7C98.2,3.6,97.7,4.3,98.2,4.7Z"/><path class="a" d="M101.6.9c6.8,5.6,13.6,11.2,20.6,16.4.5.4,1-.3.5-.7C116.1,10.9,109.1,5.5,102.1.1,101.6-.3,101.1.5,101.6.9Z"/><path class="a" d="M108.6,1.8c5.3,3.7,10.1,7.9,15,11.9.5.4,1.1-.3.7-.7A97.1,97.1,0,0,0,109.2,1C108.6.7,108.1,1.5,108.6,1.8Z"/><path class="a" d="M115.2,2.8c4.1,3.2,8.2,6.7,12.6,9.6.6.3,1.1-.4.6-.8-4-3.5-8.4-6.5-12.7-9.6C115.2,1.6,114.7,2.4,115.2,2.8Z"/><path class="a" d="M120,2.4c3.1,2.5,6.1,5.1,9.3,7.4a.5.5,0,1,0,.6-.8c-3-2.6-6.2-5-9.3-7.5C120.1,1,119.4,1.9,120,2.4Z"/><path class="a" d="M123.6,1.5a16.6,16.6,0,0,1,6.3,5.1c.4.4,1-.2.7-.6A16.7,16.7,0,0,0,124,.5.5.5,0,0,0,123.6,1.5Z"/><path class="a" d="M107.4,46.8c6.2,5.1,12.8,9.8,19.3,14.5a.4.4,0,1,0,.5-.7c-6.3-5-12.6-10.1-19.3-14.6C107.4,45.6,106.9,46.4,107.4,46.8Z"/><path class="a" d="M102.2,39.3A101.5,101.5,0,0,1,123,54c.4.4,1.1-.1.7-.6a88.7,88.7,0,0,0-20.9-15C102.2,38.1,101.6,39,102.2,39.3Z"/><path class="a" d="M101.1,33c11.7,9.5,23.2,19.1,34.5,29.1.5.4,1.1-.3.7-.7a322.9,322.9,0,0,0-34.7-29.2C101.1,31.8,100.6,32.6,101.1,33Z"/><path class="a" d="M96.9,24.8c11.5,9.7,23,19.5,34.6,29.1.5.4,1-.4.5-.8C120.6,43.3,109,33.7,97.5,24,97,23.6,96.5,24.4,96.9,24.8Z"/><path class="a" d="M93.9,18.6a348.3,348.3,0,0,1,38.6,33.2c.4.4,1.1-.2.7-.6A292.7,292.7,0,0,0,94.4,17.9.4.4,0,1,0,93.9,18.6Z"/><path class="a" d="M117.9,35.4c5.1,4.4,10.1,9,15.5,13.1.4.3,1.1-.4.6-.8-4.9-4.6-10.3-8.9-15.5-13.1C118,34.1,117.4,35,117.9,35.4Z"/><path class="a" d="M119.2,33.1a120.5,120.5,0,0,1,17.3,14.6c.4.4,1-.1.6-.6a79.3,79.3,0,0,0-17.3-14.9A.5.5,0,0,0,119.2,33.1Z"/><path class="a" d="M121.2,30.5a118,118,0,0,1,14.3,11c.4.4,1-.3.6-.7a91.7,91.7,0,0,0-14.3-11.2A.5.5,0,0,0,121.2,30.5Z"/><path class="a" d="M127.8,30.2a26,26,0,0,1,7.7,7.1c.3.4,1-.2.6-.6a23.4,23.4,0,0,0-7.7-7.3C127.9,29.1,127.3,29.8,127.8,30.2Z"/><path class="a" d="M133.7,79.8c5.3,6.1,10.4,12.5,16.1,18.2.4.5,1.2-.2.7-.7-4.9-6.3-10.6-12.2-15.9-18.2C134.1,78.6,133.2,79.3,133.7,79.8Z"/><path class="a" d="M136.9,76.3c6.3,6.8,12.5,13.7,19.1,20.2.4.4,1.1-.2.7-.6-6.1-7-12.6-13.6-19-20.3C137.2,75.2,136.5,75.8,136.9,76.3Z"/><path class="a" d="M125.8,63.1a447,447,0,0,1,33.5,31c.4.4,1.1-.1.7-.6a276.9,276.9,0,0,0-33.7-31.2C125.8,61.9,125.3,62.7,125.8,63.1Z"/><path class="a" d="M131,62.3a268.9,268.9,0,0,1,31.5,29.8.5.5,0,0,0,.8-.7,209.4,209.4,0,0,0-31.8-29.9C131,61.1,130.5,61.9,131,62.3Z"/><path class="a" d="M135.1,61c11.7,8.8,22,18.7,32.1,29.3.4.4,1.1-.2.7-.6a208.6,208.6,0,0,0-32.2-29.4C135.2,59.9,134.7,60.7,135.1,61Z"/><path class="a" d="M143.6,63.6l13.7,10c.5.3,1-.4.5-.7L144.1,62.8C143.6,62.5,143.1,63.3,143.6,63.6Z"/><path class="a" d="M160.3,114.2c6.9,8.7,13.8,17.4,20.9,25.9.5.7,1.5-.2,1-.8-6.9-8.7-14.1-17.2-21.2-25.7A.5.5,0,1,0,160.3,114.2Z"/><path class="a" d="M157.5,106.5c9,9.9,17.7,20.4,27.2,29.8.5.4,1.2-.2.8-.7-8.5-10.3-18.2-19.9-27.3-29.8C157.8,105.4,157.1,106,157.5,106.5Z"/><path class="a" d="M159.5,103.7c10.5,10.3,19.9,21.4,29.4,32.6.4.4,1.1-.2.7-.7a300.6,300.6,0,0,0-29.3-32.5C159.9,102.6,159.1,103.3,159.5,103.7Z"/><path class="a" d="M160.7,98.9a161.1,161.1,0,0,1,28.2,31.8c.3.4,1.1-.1.8-.5a138.3,138.3,0,0,0-28.5-32.1C160.7,97.7,160.2,98.5,160.7,98.9Z"/><path class="a" d="M162.5,94.8c10.6,11.6,21,23.7,32.1,34.9.4.5,1.2-.1.8-.6-10.3-12-21.5-23.4-32.2-35C162.8,93.7,162,94.3,162.5,94.8Z"/><path class="a" d="M161,87.6c3.1,3,6,6,9.1,8.9.4.4,1.1-.1.7-.6l-9-9C161.3,86.5,160.6,87.1,161,87.6Z"/><path class="a" d="M174.8,101.7c8.1,7.3,14.7,15.6,21.8,23.8.4.4,1.2,0,.8-.5-5.8-9-13.9-16.9-21.8-24C175.1,100.6,174.3,101.3,174.8,101.7Z"/><path class="a" d="M165.9,87.1a559.1,559.1,0,0,1,39.4,42.1c.4.5,1.1-.2.8-.6a403.3,403.3,0,0,0-39.4-42.2C166.2,86,165.4,86.7,165.9,87.1Z"/><path class="a" d="M160.3,75.7a235,235,0,0,1,46.6,48.4c.5.7,1.5-.2,1-.9a222.5,222.5,0,0,0-47-48.4A.5.5,0,0,0,160.3,75.7Z"/><path class="a" d="M171.2,76.3c14.4,14.1,27.4,29.3,41,44.2a.5.5,0,0,0,.8-.7c-12.2-15.8-26.7-30.3-41-44.2C171.5,75.2,170.7,75.8,171.2,76.3Z"/><path class="a" d="M176.1,74.8c3,2.5,6.1,5,9.3,7.4.4.4.9-.4.5-.8-3-2.6-6.1-5.1-9.2-7.6C176.1,73.3,175.5,74.3,176.1,74.8Z"/><path class="a" d="M188.4,86.9c10.3,11.9,20.4,24.1,31.2,35.4a.5.5,0,1,0,.8-.7c-9.9-12.2-20.8-23.6-31.2-35.3C188.7,85.8,188,86.4,188.4,86.9Z"/><path class="a" d="M183.7,74.8c13.8,14.6,26.2,30,38.7,45.8.4.5,1.2-.2.8-.8-11.4-16.3-24.8-31.5-38.8-45.6A.5.5,0,1,0,183.7,74.8Z"/><path class="a" d="M189.5,76.5a353.7,353.7,0,0,1,35.8,40.6.6.6,0,0,0,.9-.7,288.2,288.2,0,0,0-35.8-40.6C189.9,75.2,189,76,189.5,76.5Z"/><path class="a" d="M192.8,72.9c11.4,11.6,21.4,24,31.5,36.6.5.5,1.2-.1.8-.6-8.9-13.4-20.1-25.5-31.5-36.7C193.1,71.7,192.3,72.4,192.8,72.9Z"/><path class="a" d="M198.6,71.8c8.5,8.9,15.9,18.5,23.4,28.3.4.4,1.2-.1.9-.6C216.2,89.2,208,79.8,199.5,71,198.9,70.5,198,71.3,198.6,71.8Z"/><path class="a" d="M201.2,67.3c5.9,7,11.5,14.4,18,20.9.4.5,1.2-.1.8-.6-5.5-7.5-11.8-14.2-17.8-21.2A.7.7,0,0,0,201.2,67.3Z"/><path class="a" d="M204,65.6a44.3,44.3,0,0,1,11.4,12.6c.4.5,1.3.1,1-.5a35.1,35.1,0,0,0-11.7-13.1C204.1,64.1,203.4,65.1,204,65.6Z"/><path class="a" d="M7.2,139.2c3.2,4.8,6.3,9.6,9.6,14.2.3.5,1.1,0,.8-.5-3.1-4.8-6.4-9.5-9.7-14.3C7.6,138.1,6.8,138.7,7.2,139.2Z"/><path class="a" d="M9.2,136.6c4.1,5,8.2,10.1,12.6,14.9.4.5,1.2-.2.8-.7-4.1-5.1-8.3-10.1-12.6-14.9A.5.5,0,1,0,9.2,136.6Z"/><path class="a" d="M10.6,152a207.8,207.8,0,0,0,47.1,52.7.5.5,0,1,0,.6-.9,220.3,220.3,0,0,1-46.8-52.3C11.1,151,10.2,151.4,10.6,152Z"/><path class="a" d="M13.7,152.8c13.4,17.1,28.8,33.1,46.5,45.8a.5.5,0,0,0,.5-.8c-17-13.9-32.6-28.5-46.2-45.7C14.1,151.5,13.3,152.2,13.7,152.8Z"/><path class="a" d="M15.4,147.5c13.7,17.9,29.4,34.6,47.4,48.2a.6.6,0,0,0,.7-1c-17.4-14.5-33.3-30-47.3-47.9C15.8,146.2,15,146.9,15.4,147.5Z"/><path class="a" d="M19.1,145c4.1,4.6,8.1,9.2,12.3,13.7a.5.5,0,1,0,.7-.6c-3.9-4.7-8-9.2-12.1-13.8C19.5,143.7,18.6,144.5,19.1,145Z"/><path class="a" d="M41.2,168.6A130.7,130.7,0,0,0,67,191.5c.6.4,1.1-.5.6-.9A172.6,172.6,0,0,1,41.9,168C41.5,167.5,40.7,168.2,41.2,168.6Z"/><path class="a" d="M28.6,145.4A212.1,212.1,0,0,0,76,192.1c.6.5,1.3-.5.7-.9a234.2,234.2,0,0,1-47.3-46.5C29,144.2,28.2,144.9,28.6,145.4Z"/><path class="a" d="M36.3,145.6a22.3,22.3,0,0,0,6.2,7.1c.5.4,1-.4.6-.8a21.5,21.5,0,0,1-5.9-6.8C36.9,144.6,36,145,36.3,145.6Z"/><path class="a" d="M54.6,166.4c7.6,9.1,16.6,17.5,26.8,23.5.5.2,1-.5.6-.8-9.8-6.9-18.8-14.2-26.7-23.3C54.9,165.4,54.2,166,54.6,166.4Z"/><path class="a" d="M45.8,148.9c11.3,13.3,23.5,26.3,37.2,37.2.4.3,1.1-.4.7-.8-13-11.9-25.6-23.7-37.1-37.1C46.2,147.7,45.4,148.4,45.8,148.9Z"/><path class="a" d="M48.9,144.2c13.3,13.5,26.3,27.4,40.1,40.4.4.4,1.2-.2.7-.7-12.8-13.9-26.7-27-40-40.4C49.2,143,48.4,143.7,48.9,144.2Z"/><path class="a" d="M44.4,129.3a133.4,133.4,0,0,1,12.4,13.6c.3.5,1-.1.6-.6a105.7,105.7,0,0,0-12.2-13.7C44.7,128.1,43.8,128.8,44.4,129.3Z"/><path class="a" d="M62.8,149.9c8.8,11.1,18.7,22.3,30.1,30.9.5.3,1.1-.4.7-.8-10.5-10-20.9-19.5-30-30.8C63.1,148.7,62.3,149.4,62.8,149.9Z"/><path class="a" d="M54.7,131.9c11.1,14.6,22.7,29.3,36.1,41.9.5.4,1.3-.2.8-.8-12.2-13.8-24.8-27.1-36.2-41.7A.5.5,0,1,0,54.7,131.9Z"/><path class="a" d="M55.3,126c13.1,16.6,27.2,33,43.2,46.8.5.4,1.1-.3.7-.7C84.3,156.8,69.4,142,56,125.3,55.6,124.8,54.9,125.5,55.3,126Z"/><path class="a" d="M61.3,126.1c2.6,2.9,5.1,5.8,7.7,8.6.4.4,1.1-.2.7-.7-2.4-2.9-5-5.8-7.5-8.7C61.7,124.8,60.9,125.5,61.3,126.1Z"/><path class="a" d="M74.4,140.6c8.6,9.6,17.7,19,27.7,27,.5.4,1.2-.4.8-.8-9.6-8.7-19-17.3-27.7-26.8C74.7,139.5,74,140.2,74.4,140.6Z"/><path class="a" d="M67.8,124.4c12.2,12.9,24,26.2,36.8,38.6.4.5,1.1-.2.7-.6C93.6,149,80.9,136.5,68.6,123.7,68.1,123.2,67.3,123.9,67.8,124.4Z"/><path class="a" d="M13.7,134.9c3,3.9,6,7.8,9.2,11.7.4.4,1-.2.7-.6-3-4-6.2-7.8-9.2-11.7A.5.5,0,1,0,13.7,134.9Z"/><path class="a" d="M10.9,125.7c5.7,7.2,11.5,14.4,17.6,21.2a.5.5,0,1,0,.7-.6C23.6,139,17.6,132,11.6,125,11.2,124.5,10.4,125.2,10.9,125.7Z"/><path class="a" d="M13.4,122.6c5.1,6.7,10.1,13.4,15.4,20,.3.4,1-.1.6-.6-4.9-6.8-10-13.4-15.2-20.1C13.8,121.4,13,122.1,13.4,122.6Z"/><path class="a" d="M18.4,123.4a200.4,200.4,0,0,0,15.8,19.7.5.5,0,1,0,.7-.6c-5.5-6.4-10.7-13-15.7-19.8C18.8,122.1,18,122.8,18.4,123.4Z"/><path class="a" d="M18,116.8c9.9,11.6,19.6,23.7,30.1,34.8a.5.5,0,0,0,.8-.7c-9.5-12-20-23.3-30.1-34.8C18.4,115.6,17.6,116.2,18,116.8Z"/><path class="a" d="M21.9,114.1c9.8,11.9,20.2,23.8,31.8,34,.4.4,1.1-.3.7-.8C43.9,135.9,33,125,22.8,113.4A.6.6,0,1,0,21.9,114.1Z"/><path class="a" d="M24,107.2a168.2,168.2,0,0,0,19.6,22.5c.5.4,1.2-.1.8-.6-6.5-7.6-13.2-15-19.6-22.6C24.3,106,23.5,106.7,24,107.2Z"/><path class="a" d="M29.8,107.4c8.6,8.9,17,18,25.9,26.7.4.4,1.1-.2.7-.6-8.4-9.1-17.2-17.9-25.8-26.8C30.1,106.2,29.3,106.9,29.8,107.4Z"/><path class="a" d="M34,101.9c9.1,10.3,18.1,20.9,27.7,30.9.4.4,1.1-.2.7-.7-8.9-10.6-18.3-20.7-27.6-31A.6.6,0,0,0,34,101.9Z"/><path class="a" d="M41.1,103.9c7.1,7.1,14.2,14.3,21.6,21.2.4.4,1.2-.2.7-.7-6.9-7.3-14.1-14.3-21.3-21.4C41.5,102.5,40.5,103.3,41.1,103.9Z"/><path class="a" d="M45.3,98.4c2.9,3.5,5.7,7.1,8.8,10.5.4.6,1.2-.1.8-.7-2.8-3.6-5.8-7.1-8.7-10.7C45.7,96.9,44.7,97.7,45.3,98.4Z"/><path class="a" d="M43.9,89.5c6,6.1,12,12.2,18.1,18.1.5.4,1.2-.2.8-.7-5.9-6.2-11.9-12.2-18-18.2C44.3,88.2,43.4,89,43.9,89.5Z"/><path class="a" d="M39.5,78.9c8.8,7.9,17.6,15.8,26.6,23.4.4.4,1.1-.3.7-.7C58.1,93.5,49.1,85.8,40.2,78,39.6,77.5,39,78.4,39.5,78.9Z"/><path class="a" d="M41.4,73.5c12.2,10.4,23.8,21.4,35.2,32.6.5.5,1.3-.2.9-.7A333.9,333.9,0,0,0,42.1,72.5C41.5,72,40.8,73,41.4,73.5Z"/><path class="a" d="M48.7,74a154.3,154.3,0,0,1,30.8,27.4c.4.5,1.2-.2.8-.7A127.5,127.5,0,0,0,49.4,73C48.7,72.6,48.1,73.6,48.7,74Z"/><path class="a" d="M53.5,70.7A290.9,290.9,0,0,1,83.2,97.5c.5.5,1.2-.1.8-.6A178.7,178.7,0,0,0,54.1,69.8.5.5,0,0,0,53.5,70.7Z"/><path class="a" d="M60.3,70.1a315.1,315.1,0,0,1,33,30.2c.5.5,1.3-.1.8-.6A208,208,0,0,0,61,69.2.6.6,0,0,0,60.3,70.1Z"/><path class="a" d="M66.8,68.5c9.4,8.9,18.6,17.8,28.1,26.4.5.5,1.2-.1.8-.6-9.2-9-18.6-17.8-27.9-26.6C67.2,67.2,66.3,68,66.8,68.5Z"/><path class="a" d="M74.2,69.1c9.4,9.2,18.8,18.5,28.6,27.5.4.4,1.2-.2.7-.7C94.2,86.5,84.6,77.5,75,68.4,74.5,67.8,73.6,68.6,74.2,69.1Z"/><path class="a" d="M56.1,111.9a65.1,65.1,0,0,1,10,8.2c.4.4,1.1-.2.7-.7a33.1,33.1,0,0,0-10-8.6A.7.7,0,0,0,56.1,111.9Z"/><path class="a" d="M61.5,109.6c9.9,8.7,19.4,17.9,28.5,27.3.5.5,1.2-.1.8-.6a312.8,312.8,0,0,0-28.6-27.8C61.6,108,60.9,109.1,61.5,109.6Z"/><path class="a" d="M69,108.5c10.9,11.4,21.6,23.1,32.8,34.3.5.5,1.3-.2.8-.7-10.6-11.7-21.7-23-32.7-34.4C69.4,107.1,68.5,107.9,69,108.5Z"/><path class="a" d="M71.1,105.7c14.1,13.8,27.4,28.3,41.2,42.5.4.4,1.1-.2.7-.7-12.5-15.1-26.8-29.1-41-42.5C71.4,104.5,70.6,105.2,71.1,105.7Z"/><path class="a" d="M75.9,103.7c13.7,13.7,27.2,27.7,41.3,41.1.5.4,1.2-.2.8-.7-13.3-14.1-27.4-27.5-41.2-41.2C76.3,102.3,75.4,103.1,75.9,103.7Z"/><path class="a" d="M80.2,102.2c14.3,12.7,27.3,26.5,40.3,40.4.4.5,1.2-.1.7-.6-12.1-14.7-26-28-40.3-40.6C80.5,100.9,79.7,101.8,80.2,102.2Z"/><path class="a" d="M92.9,108.8c8.5,8.5,16.9,17.1,25.5,25.5.4.4,1.1-.1.7-.6-8.4-8.6-17-17-25.4-25.6C93.2,107.7,92.5,108.3,92.9,108.8Z"/><path class="a" d="M85,97.9a341.7,341.7,0,0,1,30,27.7.5.5,0,1,0,.7-.6,257.2,257.2,0,0,0-30-28.1C85.1,96.3,84.4,97.4,85,97.9Z"/><path class="a" d="M93.4,97.5c8.8,9.1,17.5,18.6,26.7,27.4.5.4,1.2-.2.8-.7-8.5-9.5-17.7-18.4-26.6-27.5C93.7,96.1,92.8,96.9,93.4,97.5Z"/><path class="a" d="M101,99.2c5.7,5.9,11.3,11.9,17.2,17.4.5.4,1.3-.2.8-.7-5.4-6-11.3-11.7-17-17.5C101.4,97.8,100.5,98.7,101,99.2Z"/><path class="a" d="M109.5,103.1c3.1,3.5,6.2,7,9.4,10.3.4.5,1.1-.2.7-.7-3-3.5-6.2-6.9-9.3-10.3C109.8,101.9,109,102.6,109.5,103.1Z"/><path class="a" d="M91.5,144.3c8.5,8.5,16.9,17.1,25.5,25.5.6.6,1.7-.3,1.1-.9-8.4-8.6-17-17-25.6-25.5C91.9,142.9,91,143.7,91.5,144.3Z"/><path class="a" d="M103.2,148.8c11.2,11.2,21.9,22.6,32.5,34.5a.5.5,0,1,0,.8-.7A213.6,213.6,0,0,0,103.9,148C103.4,147.6,102.8,148.3,103.2,148.8Z"/><path class="a" d="M109.1,147.6c10.6,11.6,21.2,23.6,32.7,34.4a.5.5,0,1,0,.7-.6c-10.1-12-21.6-23.3-32.6-34.5A.5.5,0,1,0,109.1,147.6Z"/><path class="a" d="M114.4,146.6c4.1,4.2,8.1,8.6,12.6,12.4.4.4,1-.3.7-.8-3.8-4.4-8.2-8.3-12.4-12.4C114.8,145.3,113.9,146.1,114.4,146.6Z"/><path class="a" d="M118.2,144.1c2.6,2.9,5,6,7.7,8.7a.5.5,0,0,0,.8-.7c-2.3-3.1-5-5.9-7.6-8.8C118.6,142.7,117.7,143.5,118.2,144.1Z"/><path class="a" d="M120.3,141.3c.8,1.3,1.7,2.5,2.6,3.8s1-.1.7-.5-1.7-2.6-2.5-4S119.9,140.8,120.3,141.3Z"/><path class="a" d="M137.3,172.5c2,2.3,4,4.7,6.2,6.9a.6.6,0,0,0,.8-.8c-1.8-2.4-3.9-4.6-6-6.9C137.8,171,136.7,171.9,137.3,172.5Z"/><path class="a" d="M93.1,215c3.4,2.3,6.7,4.7,10.3,6.7.6.3,1.1-.4.6-.8-3.2-2.5-6.8-4.7-10.2-6.9C93.1,213.5,92.4,214.6,93.1,215Z"/><path class="a" d="M96.6,212.8c4.7,3.8,9.4,7.5,14.4,10.9.5.4,1-.4.6-.8-4.6-3.9-9.5-7.5-14.4-11A.5.5,0,1,0,96.6,212.8Z"/><path class="a" d="M101.8,210.4a70.7,70.7,0,0,0,16.8,13.5c.5.3,1-.5.5-.8a96,96,0,0,1-16.4-13.4C102.2,209.2,101.4,209.9,101.8,210.4Z"/><path class="a" d="M107.6,210.6a60.8,60.8,0,0,0,17.2,14.7c.5.3,1.1-.5.6-.8a90.5,90.5,0,0,1-16.9-14.6C108,209.3,107.1,210.1,107.6,210.6Z"/><path class="a" d="M118.2,215.9a24.6,24.6,0,0,0,12.4,9.8c.6.2.9-.7.3-1-4.8-2.4-8.7-5.2-11.8-9.6C118.6,214.4,117.7,215.2,118.2,215.9Z"/><path class="a" d="M123.1,215.3c3.8,3.7,7.9,7.3,12.6,9.6.6.3.9-.6.5-.9-4.1-3.2-8.3-6-12.1-9.5C123.5,214,122.5,214.8,123.1,215.3Z"/><path class="a" d="M128.8,212.8a27,27,0,0,0,9.8,8.9c.6.3,1-.6.5-.9a43.2,43.2,0,0,1-9.3-8.8C129.3,211.3,128.3,212.1,128.8,212.8Z"/><path class="a" d="M132.6,210.2a31.5,31.5,0,0,0,14.6,10c.6.2.9-.6.3-.9a39.3,39.3,0,0,1-14-9.9C133,208.8,132.1,209.6,132.6,210.2Z"/><path class="a" d="M139.2,208.5c3.3,4.6,7.8,8.7,13.3,10.5.5.2,1-.6.5-.9-5.1-2.8-9.4-5.7-12.8-10.4C139.7,207,138.8,207.8,139.2,208.5Z"/><path class="a" d="M144,205.3c3.4,4.5,7.8,8.6,13.1,10.8.5.2.9-.6.4-.9-4.8-3.1-9.1-6.1-12.6-10.7C144.4,204,143.6,204.7,144,205.3Z"/><path class="a" d="M148.6,203.8c3.6,2.6,7.2,5.2,10.9,7.6a.5.5,0,1,0,.6-.8c-3.5-2.7-7.2-5.3-10.9-7.8C148.6,202.4,147.9,203.4,148.6,203.8Z"/><path class="a" d="M153.3,200.5c3.6,2.7,7,5.5,10.7,8,.5.4,1-.4.6-.7-3.4-2.9-7.1-5.5-10.6-8.2A.6.6,0,0,0,153.3,200.5Z"/><path class="a" d="M152.2,195.7a26.2,26.2,0,0,0,2.2,2.5.6.6,0,0,0,1-.8,27.5,27.5,0,0,0-2.2-2.6A.7.7,0,0,0,152.2,195.7Z"/><path class="a" d="M159.7,201.5c2.3,2.2,4.6,4.4,7.1,6.4.4.3,1-.3.6-.7-2.2-2.2-4.6-4.3-6.9-6.4C160,200.3,159.2,201,159.7,201.5Z"/><path class="a" d="M152,191.6c6,4.8,12.1,9.5,18.5,13.9.6.4,1.2-.5.6-1-5.9-4.8-12.2-9.4-18.5-13.9C152,190.2,151.4,191.2,152,191.6Z"/><path class="a" d="M144.5,178.6c8.8,7.9,17.8,16.3,27.3,23.3.6.4,1.3-.4.8-.9-8.4-8.3-18-15.9-27.3-23.3C144.8,177.3,144.1,178.1,144.5,178.6Z"/><path class="a" d="M147.5,175.5c9.7,7.5,18.3,16.1,27.6,24,.4.4,1-.3.7-.8-7.9-9.2-18-17-27.7-24.1C147.6,174.1,146.9,175,147.5,175.5Z"/><path class="a" d="M152,173.6a215.7,215.7,0,0,0,19.7,17.3c.6.4,1.4-.5.8-1a231.5,231.5,0,0,0-19.9-17C152.2,172.6,151.6,173.2,152,173.6Z"/><path class="a" d="M165.9,182.3a57.7,57.7,0,0,0,7.4,4.7c.6.3,1.2-.5.6-.9a70.6,70.6,0,0,0-7.3-4.8C165.9,181,165.3,181.9,165.9,182.3Z"/><path class="a" d="M169,178.7a68,68,0,0,0,6.3,5.6c.5.3,1.1-.4.7-.8a80.9,80.9,0,0,0-6.1-5.6C169.3,177.4,168.3,178.2,169,178.7Z"/><path class="a" d="M173.6,179.7c1.5,1.4,2.8,2.8,4.4,4.2s1.1-.4.7-.9-2.7-2.8-4.1-4.1S173,179.1,173.6,179.7Z"/><path class="a" d="M11.8,75.6A46,46,0,0,0,17,80.3c.5.4,1.1-.3.7-.7a33.7,33.7,0,0,0-5.2-4.8A.5.5,0,0,0,11.8,75.6Z"/><path class="a" d="M15.2,73.3c2.1,1.8,4.1,3.7,6.3,5.4.4.3,1-.4.6-.7-2-2-4.2-3.8-6.3-5.6C15.3,71.9,14.7,72.8,15.2,73.3Z"/><path class="a" d="M17.9,70c4.7,4.2,9.5,8.5,14.4,12.3.5.4,1.1-.3.7-.7-4.6-4.3-9.5-8.4-14.4-12.3C18.2,68.9,17.5,69.6,17.9,70Z"/><path class="a" d="M23.9,70c4.2,4.1,8.2,8.3,12.5,12.2.5.4,1.2-.2.7-.6-4-4.3-8.2-8.3-12.4-12.3C24.2,68.8,23.4,69.5,23.9,70Z"/><path class="a" d="M28.9,69.5C32,72.1,35,74.6,38.2,77c.5.4,1-.4.6-.8-3-2.6-6.2-5.1-9.2-7.6A.6.6,0,0,0,28.9,69.5Z"/><path class="a" d="M33.9,68.8l7.6,7.3c.5.4,1.2-.2.8-.7L34.8,68C34.2,67.5,33.4,68.2,33.9,68.8Z"/><path class="a" d="M39,68.1l4.1,4.1c.5.4,1.2-.2.8-.7l-4.1-4.1C39.3,66.9,38.5,67.6,39,68.1Z"/><path class="a" d="M158.2,17.9a114.4,114.4,0,0,1,24.3,20.7c.4.5,1.2-.1.8-.7A94.4,94.4,0,0,0,158.8,17C158.2,16.7,157.6,17.5,158.2,17.9Z"/><path class="a" d="M185,49.4c4.6,3.7,8,8,11.4,12.8.3.5,1.1,0,.8-.5-2.7-5.2-7-9.6-11.6-13.2A.5.5,0,1,0,185,49.4Z"/><path class="a" d="M186.5,41.3a126.3,126.3,0,0,1,16.7,19.1c.4.5,1.3-.1,1-.6a94.4,94.4,0,0,0-17-19.2C186.7,40.2,186,40.9,186.5,41.3Z"/><path class="a" d="M204.5,160.7c6.3-9.7,10.8-21.1,11.4-32.7a.5.5,0,0,0-1-.1c-1.7,11.8-4.7,22.1-11.2,32.2C203.3,160.6,204.2,161.2,204.5,160.7Z"/><path class="a" d="M68.5,204.3c7,5.7,16,9.5,25.2,9,.6,0,.5-.9-.1-1-9.2-.8-17.1-3.1-24.5-8.9C68.6,203,68,203.8,68.5,204.3Z"/><path class="a" d="M8,111.7c-.3-9.2,1.7-17.5,4.8-26.1.2-.6-.7-.9-1-.4-4,8.2-5.2,17.4-4.8,26.4C7,112.2,8,112.3,8,111.7Z"/><path class="a" d="M191,74.2a22.4,22.4,0,0,1,7,11.3.5.5,0,0,0,1-.2,21,21,0,0,0-7.5-11.8C191.1,73.1,190.6,73.8,191,74.2Z"/><path class="a" d="M197,72.8c2.4,5.7,4.7,11.4,7.2,17.1.3.5,1.1.1.9-.4-2.3-5.8-4.7-11.5-7.1-17.2C197.7,71.6,196.7,72.1,197,72.8Z"/><path class="a" d="M201.2,71.2A70.5,70.5,0,0,1,211,96.1a.5.5,0,0,0,1-.2,62.3,62.3,0,0,0-9.8-25.2C201.8,70.2,200.8,70.6,201.2,71.2Z"/><path class="a" d="M203.9,65.3A78.9,78.9,0,0,1,214.7,91c.1.6,1.1.4,1-.2a65.7,65.7,0,0,0-10.8-26.2C204.5,64.1,203.5,64.7,203.9,65.3Z"/><path class="a" d="M208.7,66.1a68.2,68.2,0,0,1,6.8,16,.5.5,0,1,0,1-.2,51.8,51.8,0,0,0-6.8-16.3C209.3,65.1,208.4,65.5,208.7,66.1Z"/><path class="a" d="M177.4,75.1a32.4,32.4,0,0,1,6.2,10.8c.2.5,1.1.2.9-.3a31.1,31.1,0,0,0-6.3-11.2C177.8,73.9,177,74.6,177.4,75.1Z"/><path class="a" d="M182.2,75.8c3,6.7,5.8,13.5,9.1,20a.5.5,0,0,0,.9-.4c-2.8-6.8-6-13.4-9.1-20A.5.5,0,1,0,182.2,75.8Z"/><path class="a" d="M187.7,76.2c4.2,8,7.3,16.3,10.5,24.8.2.5,1.1.2.9-.4a113.1,113.1,0,0,0-10.4-24.9A.6.6,0,1,0,187.7,76.2Z"/><path class="a" d="M198.7,87.9c2.3,9,4.4,18.1,7,26.9.2.7,1.2.5,1-.1-2.1-9.1-4.7-18-7.1-26.9C199.5,87.2,198.5,87.3,198.7,87.9Z"/><path class="a" d="M203,88c3.6,10.1,6.6,20.3,9.8,30.5.2.7,1.3.5,1.1-.2A221,221,0,0,0,204,87.5C203.7,86.8,202.7,87.3,203,88Z"/><path class="a" d="M209.4,84.9c2.7,11.6,5.2,23.1,8.1,34.5.2.7,1.3.6,1.1-.2-2.5-11.5-5.3-23-8.1-34.4C210.3,84.1,209.3,84.3,209.4,84.9Z"/><path class="a" d="M218.4,92.6c1.3,6.8,2.5,13.7,3.9,20.6.1.6,1,.4.9-.2-1.1-6.9-2.5-13.7-3.8-20.6A.5.5,0,1,0,218.4,92.6Z"/><path class="a" d="M169,80.6c1.9,3.8,3.9,7.5,6,11.2.3.5,1.1.1.9-.5-1.9-3.8-3.9-7.5-5.9-11.2C169.7,79.5,168.7,80,169,80.6Z"/><path class="a" d="M174.3,78.4c3.4,9.2,6.6,18.4,10.1,27.6.2.5,1,.1.8-.4-3.2-9.3-6.6-18.4-10-27.6C175,77.4,174.1,77.8,174.3,78.4Z"/><path class="a" d="M183.5,90.1a119.9,119.9,0,0,1,9.4,28,.5.5,0,0,0,.9-.2,100.7,100.7,0,0,0-9.4-28.2A.5.5,0,0,0,183.5,90.1Z"/><path class="a" d="M193,104.3a170.9,170.9,0,0,1,7.2,24.1.5.5,0,1,0,1-.2,121.2,121.2,0,0,0-7.2-24.3C193.7,103.2,192.8,103.7,193,104.3Z"/><path class="a" d="M200.6,110.3c1.5,5.4,2.9,10.8,4.7,16.1.2.6,1.2.2,1.1-.4-1.3-5.3-3.1-10.6-4.7-15.9C201.5,109.5,200.4,109.6,200.6,110.3Z"/><path class="a" d="M207.5,115.1a40.3,40.3,0,0,0,4,12.6c.3.6,1.2.1.9-.5a58.7,58.7,0,0,1-3.9-12.3C208.4,114.3,207.4,114.5,207.5,115.1Z"/><path class="a" d="M212.5,114.6c1.4,4.1,2.7,8.3,4.3,12.3.2.5,1,.2.9-.3-1.2-4.2-2.8-8.3-4.2-12.5C213.3,113.4,212.3,113.9,212.5,114.6Z"/><path class="a" d="M186.5,112.8c1.2,8.7,2.2,17.6,3.8,26.2a.5.5,0,1,0,1-.2c-.8-8.7-2.4-17.5-3.7-26.2A.6.6,0,1,0,186.5,112.8Z"/><path class="a" d="M182.1,110.1a197.2,197.2,0,0,0,1.7,27.7c.1.7,1.2.5,1.1-.2-.9-9.1-1.7-18.2-1.8-27.4C183.1,109.5,182.1,109.4,182.1,110.1Z"/><path class="a" d="M174.8,117.9c1.4,6.9,1.6,13.7,1.9,20.8a.6.6,0,0,0,1.1,0,74.5,74.5,0,0,0-2-21A.5.5,0,1,0,174.8,117.9Z"/><path class="a" d="M177.8,112.5c-.2-4.5-.6-9-1.1-13.5,0-.5-.9-.4-.9.1.2,4.5.4,9,.9,13.4C176.7,113.1,177.8,113.1,177.8,112.5Z"/><path class="a" d="M171.5,126.1c0-7-.5-14.1-1.1-21,0-.6-.9-.5-.9,0,0,7,.3,14.1.9,21.1C170.4,126.8,171.5,126.8,171.5,126.1Z"/><path class="a" d="M166.6,114.4c.1-2.7.2-5.5.2-8.2,0-.6-1-.7-1-.1-.2,2.7-.2,5.5-.3,8.2A.6.6,0,0,0,166.6,114.4Z"/><path class="a" d="M171.6,91.5c-.9-4.9-1.6-9.8-2.7-14.6a.5.5,0,0,0-1,.2c.8,4.9,1.8,9.7,2.8,14.6C170.8,92.3,171.7,92.1,171.6,91.5Z"/><path class="a" d="M166.5,89.6c-.3-3.4-.6-6.8-1-10.2-.1-.6-1-.4-.9.2.2,3.4.5,6.8.8,10.2C165.5,90.4,166.5,90.2,166.5,89.6Z"/><path class="a" d="M160.6,85.2c-.4-2-.9-4-1.4-6s-1-.4-.9.2.9,4,1.3,6S160.8,85.8,160.6,85.2Z"/><path class="a" d="M156.3,84.2a129.1,129.1,0,0,0-4.4-22.1c-.2-.5-1.1-.4-.9.2,1.7,7.3,3.2,14.7,4.2,22.1C155.3,85.1,156.4,84.9,156.3,84.2Z"/><path class="a" d="M149.3,80.7c-.1-2.3-.1-4.6-.4-6.8-.1-.6-1-.6-1,0a51.6,51.6,0,0,0,.3,6.8C148.2,81.3,149.3,81.3,149.3,80.7Z"/><path class="a" d="M148.4,67.1a26.6,26.6,0,0,1-3.1-8.7.5.5,0,1,0-.9.1,19.4,19.4,0,0,0,3.1,9.1C147.9,68.1,148.8,67.7,148.4,67.1Z"/><path class="a" d="M141.8,69.1c-1.3-6.5-2.4-13.1-3.9-19.6-.1-.6-1-.4-.9.2,1,6.6,2.4,13.1,3.7,19.6C140.8,70,141.9,69.8,141.8,69.1Z"/><path class="a" d="M136,67.3a152.8,152.8,0,0,0-6.3-34.2c-.2-.7-1.3-.5-1.1.2a180.7,180.7,0,0,1,6.3,34.2C135,68.2,136,68,136,67.3Z"/><path class="a" d="M137,41.9c-.4-2.5-.7-5-1.2-7.5a.5.5,0,1,0-1,.2c.3,2.5.7,5,1.1,7.5C136,42.8,137.1,42.6,137,41.9Z"/><path class="a" d="M128.6,53.4A164.5,164.5,0,0,0,114,4.8c-.3-.6-1.1-.1-.9.5a184.9,184.9,0,0,1,14.5,48.2A.5.5,0,0,0,128.6,53.4Z"/><path class="a" d="M120.4,47.9A91.6,91.6,0,0,0,108.3,4.6c-.3-.6-1.4-.2-1,.5A105.3,105.3,0,0,1,119.4,48C119.4,48.5,120.5,48.5,120.4,47.9Z"/><path class="a" d="M115,41.7c-3.5-11.9-6.9-23.8-10.6-35.6-.2-.7-1.3-.5-1.1.2,3.4,11.9,7.1,23.7,10.7,35.6C114.2,42.5,115.2,42.4,115,41.7Z"/><path class="a" d="M107.3,33A80.3,80.3,0,0,0,97.6,3.6c-.3-.5-1.1-.1-.8.4a81.7,81.7,0,0,1,9.6,29.2C106.5,33.7,107.3,33.5,107.3,33Z"/><path class="a" d="M102.3,33.7A118,118,0,0,0,94.7,5.6c-.2-.6-1.1-.2-.9.5a126.1,126.1,0,0,1,7.5,27.7A.5.5,0,0,0,102.3,33.7Z"/><path class="a" d="M93.7,18.8a16.7,16.7,0,0,0-4-10,.5.5,0,1,0-.7.6A18.6,18.6,0,0,1,92.7,19C92.7,19.7,93.7,19.5,93.7,18.8Z"/><path class="a" d="M88.3,16.9A20.1,20.1,0,0,0,85,7.8c-.3-.4-1.1.1-.8.6a24.2,24.2,0,0,1,3,8.8C87.3,17.9,88.4,17.7,88.3,16.9Z"/><path class="a" d="M121.2,16.7c-.9-3.5-1.8-7-2.8-10.4-.2-.6-1-.4-.9.1.8,3.6,1.8,7,2.7,10.5C120.4,17.5,121.4,17.4,121.2,16.7Z"/><path class="a" d="M123.8,12.3c-.6-2.9-1.1-5.7-1.8-8.5-.2-.6-1.1-.5-1,.1.5,2.9,1.1,5.7,1.7,8.6C122.9,13.1,123.9,12.9,123.8,12.3Z"/><path class="a" d="M127.1,11.3l-1.5-8.5c-.2-.6-1.1-.5-1,.1.4,2.9,1,5.8,1.5,8.6A.5.5,0,1,0,127.1,11.3Z"/><path class="a" d="M132.9,83.2c-.5-6.5-1.1-12.9-1.7-19.4-.1-.5-.9-.4-.9.2.4,6.5,1,12.9,1.6,19.4C132,84,132.9,83.8,132.9,83.2Z"/><path class="a" d="M126.7,82.1a92.1,92.1,0,0,0-2-27.7c-.1-.6-1-.4-.9.2A100.7,100.7,0,0,1,125.6,82C125.6,82.7,126.7,82.8,126.7,82.1Z"/><path class="a" d="M119,80.6c.2-2.5.3-4.9.3-7.3,0-.7-1-.8-1-.1-.3,2.4-.4,4.8-.5,7.2C117.8,81.2,119,81.3,119,80.6Z"/><path class="a" d="M118.1,65.6c-.9-6.3-1.7-12.5-2.7-18.7-.1-.6-.9-.4-.9.1.8,6.3,1.7,12.5,2.6,18.8C117.2,66.4,118.2,66.2,118.1,65.6Z"/><path class="a" d="M111.1,70.8c-.1-7.7,0-15.4-.4-23.1,0-.7-1-.8-1-.1-.1,7.7.1,15.4.3,23.1C110,71.4,111.1,71.5,111.1,70.8Z"/><path class="a" d="M103.1,71.8c.5-6.8,1.1-13.5,1.5-20.3.1-.6-.8-.7-.9-.1-.6,6.8-1,13.5-1.5,20.3C102.1,72.3,103.1,72.4,103.1,71.8Z"/><path class="a" d="M98.5,75a98.5,98.5,0,0,0,1.3-20.3c0-.6-.9-.7-.9-.1a152.7,152.7,0,0,1-1.4,20.3C97.4,75.6,98.4,75.6,98.5,75Z"/><path class="a" d="M94.7,81.8a5.7,5.7,0,0,0-.8-5.5c-.3-.5-1,0-.7.5a4.7,4.7,0,0,1,.6,4.6C93.6,82.1,94.5,82.4,94.7,81.8Z"/><path class="a" d="M94.6,69.2c-.5-4.2-.9-8.5-1.5-12.7-.1-.6-1-.4-1,.2.4,4.2,1,8.4,1.5,12.7C93.7,70,94.7,69.8,94.6,69.2Z"/><path class="a" d="M89.3,66.7c0,.6.9.7.9.1S89.3,66.1,89.3,66.7Z"/><path class="a" d="M117,94.2a45,45,0,0,0-.1-15.1.5.5,0,0,0-1,.2,73.2,73.2,0,0,1,.1,14.8C115.9,94.7,116.9,94.8,117,94.2Z"/><path class="a" d="M122.6,100.2a92,92,0,0,0,.7-18.9c-.1-.5-1-.5-1,.1a130,130,0,0,1-.8,18.7C121.4,100.8,122.5,100.9,122.6,100.2Z"/><path class="a" d="M127.1,105.4a18.3,18.3,0,0,0,1.3-2.4c.3-.5-.6-1-1-.4a15.5,15.5,0,0,0-1.2,2.2C125.8,105.4,126.8,106.1,127.1,105.4Z"/><path class="a" d="M128.6,103c.6-7.3,1.5-14.6,1.6-21.9a.6.6,0,0,0-1.1-.1c-.8,7.3-1,14.6-1.4,21.9C127.7,103.5,128.6,103.6,128.6,103Z"/><path class="a" d="M134.8,104.2a144.3,144.3,0,0,0,.9-27.1c0-.5-.9-.5-.9.1a219.2,219.2,0,0,1-1,26.9C133.7,104.8,134.8,104.9,134.8,104.2Z"/><path class="a" d="M140.9,98.8c.1-1.9.2-3.8.2-5.7A.6.6,0,0,0,140,93a54.6,54.6,0,0,0-.4,5.7A.7.7,0,0,0,140.9,98.8Z"/><path class="a" d="M142.6,85c-.2-1.7-.5-3.4-.7-5.1a.5.5,0,0,0-.9.2c.2,1.7.5,3.4.7,5.1S142.7,85.6,142.6,85Z"/><path class="a" d="M148.1,96.8c.1-4.3.4-8.6.3-13a.5.5,0,0,0-1-.1c-.2,4.4-.2,8.7-.3,13C147,97.4,148.1,97.5,148.1,96.8Z"/><path class="a" d="M155.4,99.9c.1-4.6.3-9.3.2-13.9,0-.6-.9-.7-.9-.1-.2,4.7-.3,9.3-.4,13.9C154.3,100.6,155.4,100.7,155.4,99.9Z"/><path class="a" d="M162.7,104.5c-.2-1.7-.5-3.4-.7-5.1s-1-.4-.9.2l.6,5.1C161.8,105.3,162.8,105.1,162.7,104.5Z"/><path class="a" d="M11.8,148.8a29,29,0,0,1,1-8.8c.2-.5-.7-.9-.9-.3a23.8,23.8,0,0,0-1.2,9.2A.6.6,0,0,0,11.8,148.8Z"/><path class="a" d="M13.4,154.8a85.6,85.6,0,0,1,3.3-16.6.5.5,0,0,0-.9-.3,59.9,59.9,0,0,0-3.5,16.8C12.2,155.4,13.4,155.5,13.4,154.8Z"/><path class="a" d="M17.5,163c.9-7.8,1.7-15.6,2.2-23.5a.5.5,0,0,0-.9,0c-1.1,7.7-1.7,15.6-2.3,23.4A.5.5,0,0,0,17.5,163Z"/><path class="a" d="M21.5,171a63.1,63.1,0,0,1,1.7-21.6.5.5,0,0,0-.9-.3,49,49,0,0,0-2,22.2C20.4,172.1,21.6,171.9,21.5,171Z"/><path class="a" d="M27.6,157.5c.6-4.5,1.1-9.1,1.7-13.6.1-.6-.8-.6-.9-.1l-1.8,13.7C26.5,158.1,27.5,158.2,27.6,157.5Z"/><path class="a" d="M30.3,180.3c1-9.4,2.3-18.8,3-28.2a.5.5,0,0,0-1-.1c-1.3,9.4-2.1,18.8-3,28.2A.5.5,0,1,0,30.3,180.3Z"/><path class="a" d="M36.9,187.1a75.2,75.2,0,0,1,1.6-21.7c.1-.5-.8-.7-1-.2a61,61,0,0,0-1.7,22.1C35.8,188,37,187.8,36.9,187.1Z"/><path class="a" d="M41.9,190.7A54.2,54.2,0,0,0,42,185c0-.7-1-.8-1-.1s-.2,3.8-.3,5.7S41.9,191.5,41.9,190.7Z"/><path class="a" d="M43.4,178.7c.3-4.4.7-8.7.9-13a.5.5,0,0,0-1-.1c-.4,4.3-.6,8.6-.9,13C42.4,179.2,43.4,179.3,43.4,178.7Z"/><path class="a" d="M47.7,195.1c.4-7.1.8-14.1,1-21.2a.5.5,0,0,0-1-.1c-.4,7.1-.6,14.1-1,21.2C46.7,195.6,47.7,195.7,47.7,195.1Z"/><path class="a" d="M53.5,199.3c-.4-1.2-.7-2.4-1.1-3.5a.5.5,0,0,0-1,.2l.9,3.5C52.5,200.2,53.7,200,53.5,199.3Z"/><path class="a" d="M54,186.4a41,41,0,0,1,1.6-13.5c.1-.5-.7-.8-.9-.3A34.6,34.6,0,0,0,53,186.5.5.5,0,0,0,54,186.4Z"/><path class="a" d="M59.1,206.4c1-11.6,2.2-23.2,2.9-34.8a.5.5,0,0,0-1-.1c-1.2,11.6-2,23.2-2.9,34.8C58,207,59.1,207.1,59.1,206.4Z"/><path class="a" d="M65.3,195.3c.6-5.4,1.2-10.8,1.6-16.2.1-.6-.8-.7-.9-.1-.6,5.4-1.1,10.8-1.7,16.2C64.3,195.8,65.3,195.9,65.3,195.3Z"/><path class="a" d="M72.1,190.8c.5-5.4,1-10.8,1.4-16.2.1-.6-.9-.7-1-.1-.6,5.4-1,10.8-1.5,16.2C70.9,191.4,72,191.5,72.1,190.8Z"/><path class="a" d="M78.1,189.5c.7-4.5,1.3-9.1,1.8-13.6.1-.6-.8-.7-.9-.1-.7,4.5-1.3,9.1-1.9,13.6C77,190.1,78.1,190.2,78.1,189.5Z"/><path class="a" d="M14.2,136.2c1.8-6,3.7-12,4.9-18.1.2-.6-.7-.7-.9-.2-2.1,5.8-3.5,11.9-5.1,17.9C13,136.5,14,136.9,14.2,136.2Z"/><path class="a" d="M20.1,140.5a119.7,119.7,0,0,1,6.6-29c.3-.7-.8-1.1-1.1-.4A122,122,0,0,0,19,140.4.6.6,0,0,0,20.1,140.5Z"/><path class="a" d="M26.1,139.2l.6-7.3a.5.5,0,0,0-1-.1l-.6,7.3C25.1,139.8,26.1,139.8,26.1,139.2Z"/><path class="a" d="M28.4,126.5A73,73,0,0,1,32,109.2a.5.5,0,0,0-.9-.3,54.7,54.7,0,0,0-3.7,17.5C27.3,127.1,28.4,127.2,28.4,126.5Z"/><path class="a" d="M30.3,144.9c1.4-7.4,3-14.8,4.2-22.2.1-.5-.8-.7-1-.2-1.6,7.4-2.9,14.9-4.3,22.3C29.1,145.5,30.2,145.6,30.3,144.9Z"/><path class="a" d="M37.5,153.7c.8-5.3,1.8-10.6,2.4-16,.1-.7-.9-.7-1.1-.1-1,5.3-1.7,10.7-2.5,16A.6.6,0,1,0,37.5,153.7Z"/><path class="a" d="M12.7,80.8c1-3.4,2-6.7,2.9-10.1.1-.6-.7-1-.9-.4-1.1,3.4-2.1,6.8-3,10.1C11.5,81.1,12.5,81.5,12.7,80.8Z"/><path class="a" d="M18.5,81.1c1.3-4.7,2.8-9.4,3.9-14.1.2-.6-.7-1-.9-.3-1.6,4.6-2.8,9.3-4.1,14A.6.6,0,0,0,18.5,81.1Z"/><path class="a" d="M23.7,84.6c1.7-6.3,3.4-12.5,4.9-18.8.2-.6-.7-1-.9-.4-1.8,6.3-3.3,12.5-5,18.8C22.5,84.9,23.5,85.2,23.7,84.6Z"/><path class="a" d="M29.7,81.6c1.3-3.6,2.5-7.2,3.7-10.8a.5.5,0,0,0-.9-.3c-1.3,3.5-2.6,7.1-3.8,10.7C28.4,81.9,29.5,82.2,29.7,81.6Z"/><path class="a" d="M37.2,79.9c.9-2.1,1.8-4.1,2.5-6.2s-.6-.9-.9-.3-1.8,4-2.6,6.1S37,80.5,37.2,79.9Z"/><path class="a" d="M171.9,206.1a31.7,31.7,0,0,0,2.5-12.8c0-.7-.9-.8-.9-.1a41.8,41.8,0,0,1-2.7,12.5C170.5,206.4,171.7,206.8,171.9,206.1Z"/><path class="a" d="M164.6,211.3c2.2-9,3.7-18.3,3.3-27.5-.1-.7-1-.8-1.1-.1-.5,9.2-1.2,18.1-3.3,27.2C163.4,211.6,164.4,212,164.6,211.3Z"/><path class="a" d="M157,212.3a184.1,184.1,0,0,0,6.9-36.7.5.5,0,0,0-1-.1,281.1,281.1,0,0,1-6.8,36.4C155.9,212.5,156.8,212.9,157,212.3Z"/><path class="a" d="M153.6,199.1c1.6-7.9,3.3-15.8,4.5-23.8.1-.5-.8-.8-.9-.2-1.8,7.9-3.2,15.9-4.7,23.9C152.4,199.7,153.5,199.8,153.6,199.1Z"/><path class="a" d="M151.6,183.9c.2-3.8.4-7.6.4-11.4.1-.6-.8-.7-.9-.1-.2,3.8-.3,7.6-.4,11.4C150.6,184.4,151.6,184.5,151.6,183.9Z"/><path class="a" d="M150.4,216.7c1-3.9,2.1-7.9,2.9-11.9.1-.6-.9-.8-1.1-.2-1.1,3.8-2,7.8-3,11.7C149,217.1,150.2,217.5,150.4,216.7Z"/><path class="a" d="M142,220.9c2-5.4,4.2-10.7,6-16.1.2-.6-.6-.9-.9-.3-2.2,5.2-4.1,10.6-6.2,16A.6.6,0,0,0,142,220.9Z"/><path class="a" d="M138.6,217.8c1.1-4.5,2.3-8.9,3.4-13.4.1-.6-.8-.9-.9-.3-1.2,4.4-2.3,8.9-3.4,13.3C137.5,218,138.5,218.4,138.6,217.8Z"/><path class="a" d="M132.3,218.8c.7-3.7,1.4-7.4,2-11.1.2-.6-.7-.6-.9,0-.7,3.6-1.4,7.4-2.1,11.1C131.2,219.4,132.2,219.5,132.3,218.8Z"/><path class="a" d="M127.3,218.8c0,.7,1.1.8,1.1.1S127.3,218.1,127.3,218.8Z"/><path class="a" d="M116.8,220c.3-1.6.6-3.2.8-4.8s-.9-.8-1-.2-.8,3.2-1.1,4.9S116.6,220.7,116.8,220Z"/><path class="a" d="M35.9,111.6A139.4,139.4,0,0,0,42.2,98c.3-.7-.7-1-1-.4-2.2,4.4-4.4,8.9-6.3,13.5C34.7,111.7,35.6,112.2,35.9,111.6Z"/><path class="a" d="M39,123.7c2.3-6.1,4.7-12.2,6.7-18.5a.5.5,0,0,0-.9-.3c-2.5,6-4.6,12.3-6.8,18.4C37.8,124,38.8,124.3,39,123.7Z"/><path class="a" d="M43.8,163.1c.2-1.6.5-3.2.7-4.8s-.8-.7-.9-.2-.7,3.3-1,4.9S43.6,163.9,43.8,163.1Z"/><path class="a" d="M46,147.9a105,105,0,0,1,4.7-23.6c.2-.5-.6-.8-.8-.3A84.8,84.8,0,0,0,45,147.8C44.9,148.5,45.9,148.5,46,147.9Z"/><path class="a" d="M54,143.7c1.1-5.8,2.1-11.6,3.1-17.5.1-.5-.8-.6-.9,0-1,5.8-2,11.6-3.1,17.5C53,144.2,53.9,144.3,54,143.7Z"/><path class="a" d="M58.6,154.5c1.2-5.5,2.4-11.1,3.5-16.6.1-.6-.8-.8-.9-.2-1.3,5.5-2.4,11.1-3.5,16.7C57.5,155,58.5,155.1,58.6,154.5Z"/><path class="a" d="M66,164.2c2.7-12.3,5.6-24.7,8-37.2.1-.5-.8-.7-1-.2-3,12.3-5.4,24.8-8.1,37.2C64.8,164.6,65.8,164.8,66,164.2Z"/><path class="a" d="M71,164.3c1.7-9,3.7-18,5.2-27,.1-.5-.8-.7-.9-.2-2,9-3.6,18-5.3,27.1C69.8,164.8,70.8,164.9,71,164.3Z"/><path class="a" d="M75.6,165.3a46.2,46.2,0,0,0,3.5-15.1.6.6,0,0,0-1.1-.1,58,58,0,0,1-3.5,14.8C74.2,165.6,75.3,166,75.6,165.3Z"/><path class="a" d="M81.6,162.3c.5-1.8,1.1-3.6,1.7-5.4s-.7-1-.9-.4-1.3,3.6-1.9,5.4A.6.6,0,0,0,81.6,162.3Z"/><path class="a" d="M87.1,172.4c1-3.9,2.1-7.8,3-11.7.2-.7-.8-1-1-.4C88,164.2,87,168.1,86,172,85.8,172.8,86.9,173.2,87.1,172.4Z"/><path class="a" d="M94.2,174.5l1.5-7.9c.1-.6-.9-.7-1-.1-.5,2.6-1,5.3-1.6,7.9C93,175.1,94.1,175.2,94.2,174.5Z"/><path class="a" d="M137.9,182.1c.1-1.9.2-3.8.2-5.7s-.8-.7-.9-.1-.2,3.8-.2,5.7S137.9,182.7,137.9,182.1Z"/><path class="a" d="M132.1,183.4l1.2-10.4c.1-.6-.9-.7-1-.1-.4,3.5-.8,7-1.3,10.4A.6.6,0,0,0,132.1,183.4Z"/><path class="a" d="M126.5,176.7c0,.6.9.6.9.1S126.5,176.1,126.5,176.7Z"/><path class="a" d="M121.3,174.1a105,105,0,0,0,3-18.5c.1-.6-.8-.6-.8-.1a124.9,124.9,0,0,1-3.1,18.3A.5.5,0,0,0,121.3,174.1Z"/><path class="a" d="M116,168.1a168.3,168.3,0,0,0,4.1-22.3c.1-.6-.8-.7-.9-.1-1.1,7.4-2.3,14.8-4.1,22.1C115,168.4,115.9,168.7,116,168.1Z"/><path class="a" d="M109.6,162.8a85.1,85.1,0,0,0,5.5-20.5c.1-.6-.9-.7-1-.1a98.8,98.8,0,0,1-5.5,20.2C108.4,163.1,109.4,163.5,109.6,162.8Z"/><path class="a" d="M105.9,155.5a124.3,124.3,0,0,0,3.5-20.1c.1-.5-.9-.6-.9,0a149.3,149.3,0,0,1-3.5,19.8C104.9,155.8,105.8,156.1,105.9,155.5Z"/><path class="a" d="M98.7,150c0,.6,1,.7,1,.1S98.7,149.3,98.7,150Z"/><path class="a" d="M96.2,159.4l1.9-5.4a.5.5,0,0,0-.9-.3c-.8,1.7-1.4,3.5-2.1,5.3A.6.6,0,0,0,96.2,159.4Z"/><path class="a" d="M100.4,143c1.7-5.7,3.7-11.4,5-17.2.1-.6-.7-.9-.9-.3-2,5.6-3.5,11.4-5.2,17.1C99.1,143.3,100.2,143.7,100.4,143Z"/><path class="a" d="M94.9,142.7c2.3-8,4.7-16.1,6.8-24.2.1-.6-.7-.9-.9-.3-2.5,8-4.7,16.1-7,24.1C93.6,143,94.7,143.4,94.9,142.7Z"/><path class="a" d="M90,135.9c1-4.8,2-9.5,2.8-14.3.1-.6-.9-.8-1-.2-1,4.7-1.9,9.6-2.8,14.4C88.9,136.4,89.9,136.5,90,135.9Z"/><path class="a" d="M84.9,128.3c.7-3.2,1.3-6.3,1.9-9.5.1-.6-.9-.7-1-.1L84,128.2C83.9,128.8,84.8,128.9,84.9,128.3Z"/><path class="a" d="M80.4,125.1c.1.6,1.1.7,1.1.1S80.4,124.4,80.4,125.1Z"/><path class="a" d="M41.7,80.8c2.5-4.5,4.9-9.1,7.1-13.7.2-.5-.6-.9-.9-.4-2.5,4.4-4.8,9-7,13.7C40.6,80.9,41.4,81.3,41.7,80.8Z"/><path class="a" d="M48.4,82.7c1.4-3.3,2.8-6.6,4.1-9.9.3-.6-.6-.9-.8-.3-1.5,3.2-2.8,6.6-4.2,9.9A.5.5,0,1,0,48.4,82.7Z"/><path class="a" d="M53.1,85.3c1.8-4,3.7-8,5.5-12.1.2-.6-.7-.9-1-.4-1.9,4-3.7,8.1-5.5,12.1C51.8,85.6,52.8,85.9,53.1,85.3Z"/><path class="a" d="M58.8,83.9q2.6-5.7,4.8-11.4c.3-.5-.6-.8-.8-.3C61.1,76,59.6,79.8,58,83.6,57.7,84.1,58.6,84.5,58.8,83.9Z"/><path class="a" d="M64.7,84.2A42.3,42.3,0,0,1,69.4,73c.3-.6-.5-1.2-.9-.6a29.7,29.7,0,0,0-4.9,11.4C63.4,84.6,64.5,85,64.7,84.2Z"/><path class="a" d="M70.6,80.5c1.5-3.9,3.1-7.7,4.5-11.5.2-.6-.7-.9-.9-.4-1.7,3.8-3.1,7.7-4.6,11.5C69.3,80.7,70.3,81.1,70.6,80.5Z"/><path class="a" d="M75.4,78c2.8-5.5,5.7-10.9,8.2-16.5.2-.5-.6-1-.9-.5-2.9,5.4-5.6,11.1-8.4,16.6C74,78.3,75.1,78.6,75.4,78Z"/><path class="a" d="M81.8,74.4c2.2-4.8,4.5-9.5,6.4-14.5.2-.5-.7-1-1-.4-2.4,4.7-4.4,9.6-6.6,14.5A.6.6,0,1,0,81.8,74.4Z"/><path class="a" d="M85.3,72c2.2-4.3,4.5-8.6,6.5-12.9.3-.6-.6-1-.9-.5-2.3,4.1-4.4,8.4-6.6,12.7C84,72,85,72.6,85.3,72Z"/><path class="a" d="M91.4,68c0,.7,1.1.8,1.1.1S91.4,67.3,91.4,68Z"/></svg>